<?xml version="1.0" encoding="UTF-8"?>
<svg xmlns="http://www.w3.org/2000/svg" xmlns:xlink="http://www.w3.org/1999/xlink" width="410pt" height="56pt" viewBox="0 0 410 56" version="1.1">
<g id="surface1">
<path style="fill:none;stroke-width:0.3985;stroke-linecap:butt;stroke-linejoin:miter;stroke:rgb(0%,0%,0%);stroke-opacity:1;stroke-miterlimit:10;" d="M 11.339292 11.338156 L 11.339292 22.678 L 22.678796 22.678 L 22.678796 11.338156 Z M 11.339292 11.338156 " transform="matrix(1.00003,0,0,-1,182.254117,61.678)"/>
<path style="fill:none;stroke-width:0.3985;stroke-linecap:butt;stroke-linejoin:miter;stroke:rgb(0%,0%,0%);stroke-opacity:1;stroke-miterlimit:10;" d="M 22.678796 11.338156 L 22.678796 22.678 L 34.014393 22.678 L 34.014393 11.338156 Z M 22.678796 11.338156 " transform="matrix(1.00003,0,0,-1,182.254117,61.678)"/>
<path style="fill:none;stroke-width:0.3985;stroke-linecap:butt;stroke-linejoin:miter;stroke:rgb(0%,0%,0%);stroke-opacity:1;stroke-miterlimit:10;" d="M 11.339292 22.678 L 11.339292 34.013938 L 22.678796 34.013938 L 22.678796 22.678 Z M 11.339292 22.678 " transform="matrix(1.00003,0,0,-1,182.254117,61.678)"/>
<path style="fill:none;stroke-width:0.3985;stroke-linecap:butt;stroke-linejoin:miter;stroke:rgb(0%,0%,0%);stroke-opacity:1;stroke-miterlimit:10;" d="M 22.678796 22.678 L 22.678796 34.013938 L 34.014393 34.013938 L 34.014393 22.678 Z M 22.678796 22.678 " transform="matrix(1.00003,0,0,-1,182.254117,61.678)"/>
<path style="fill:none;stroke-width:0.3985;stroke-linecap:butt;stroke-linejoin:miter;stroke:rgb(0%,0%,0%);stroke-opacity:1;stroke-miterlimit:10;" d="M 11.339292 34.013938 L 11.339292 45.353781 L 22.678796 45.353781 L 22.678796 34.013938 Z M 11.339292 34.013938 " transform="matrix(1.00003,0,0,-1,182.254117,61.678)"/>
<path style="fill:none;stroke-width:0.3985;stroke-linecap:butt;stroke-linejoin:miter;stroke:rgb(0%,0%,0%);stroke-opacity:1;stroke-miterlimit:10;" d="M 11.339292 45.353781 L 11.339292 56.693625 L 22.678796 56.693625 L 22.678796 45.353781 Z M 11.339292 45.353781 " transform="matrix(1.00003,0,0,-1,182.254117,61.678)"/>
<path style="fill:none;stroke-width:0.3985;stroke-linecap:butt;stroke-linejoin:miter;stroke:rgb(97.499084%,97.499084%,97.499084%);stroke-opacity:1;stroke-miterlimit:10;" d="M -180.561201 7.154563 L 225.918792 7.154563 L 225.918792 60.881125 L -180.561201 60.881125 Z M -180.561201 7.154563 " transform="matrix(1.00003,0,0,-1,182.254117,61.678)"/>
</g>
</svg>
