<?xml version="1.0" encoding="UTF-8"?>
<svg xmlns="http://www.w3.org/2000/svg" xmlns:xlink="http://www.w3.org/1999/xlink" width="410pt" height="79pt" viewBox="0 0 410 79" version="1.1">
<g id="surface1">
<path style="fill:none;stroke-width:0.3985;stroke-linecap:butt;stroke-linejoin:miter;stroke:rgb(0%,0%,0%);stroke-opacity:1;stroke-miterlimit:10;" d="M 11.337782 11.340375 L 11.337782 22.676312 L 22.677285 22.676312 L 22.677285 11.340375 Z M 11.337782 11.340375 " transform="matrix(1.00003,0,0,-1,148.236097,84.356)"/>
<path style="fill:none;stroke-width:0.3985;stroke-linecap:butt;stroke-linejoin:miter;stroke:rgb(0%,0%,0%);stroke-opacity:1;stroke-miterlimit:10;" d="M 22.677285 11.340375 L 22.677285 22.676312 L 34.016789 22.676312 L 34.016789 11.340375 Z M 22.677285 11.340375 " transform="matrix(1.00003,0,0,-1,148.236097,84.356)"/>
<path style="fill:none;stroke-width:0.3985;stroke-linecap:butt;stroke-linejoin:miter;stroke:rgb(0%,0%,0%);stroke-opacity:1;stroke-miterlimit:10;" d="M 34.016789 11.340375 L 34.016789 22.676312 L 45.352386 22.676312 L 45.352386 11.340375 Z M 34.016789 11.340375 " transform="matrix(1.00003,0,0,-1,148.236097,84.356)"/>
<path style="fill:none;stroke-width:0.3985;stroke-linecap:butt;stroke-linejoin:miter;stroke:rgb(0%,0%,0%);stroke-opacity:1;stroke-miterlimit:10;" d="M 45.352386 11.340375 L 45.352386 22.676312 L 56.69189 22.676312 L 56.69189 11.340375 Z M 45.352386 11.340375 " transform="matrix(1.00003,0,0,-1,148.236097,84.356)"/>
<path style="fill:none;stroke-width:0.3985;stroke-linecap:butt;stroke-linejoin:miter;stroke:rgb(0%,0%,0%);stroke-opacity:1;stroke-miterlimit:10;" d="M 56.69189 11.340375 L 56.69189 22.676312 L 68.031393 22.676312 L 68.031393 11.340375 Z M 56.69189 11.340375 " transform="matrix(1.00003,0,0,-1,148.236097,84.356)"/>
<path style="fill:none;stroke-width:0.3985;stroke-linecap:butt;stroke-linejoin:miter;stroke:rgb(0%,0%,0%);stroke-opacity:1;stroke-miterlimit:10;" d="M 68.031393 11.340375 L 68.031393 22.676312 L 79.370897 22.676312 L 79.370897 11.340375 Z M 68.031393 11.340375 " transform="matrix(1.00003,0,0,-1,148.236097,84.356)"/>
<path style="fill:none;stroke-width:0.3985;stroke-linecap:butt;stroke-linejoin:miter;stroke:rgb(0%,0%,0%);stroke-opacity:1;stroke-miterlimit:10;" d="M 79.370897 11.340375 L 79.370897 22.676312 L 90.706494 22.676312 L 90.706494 11.340375 Z M 79.370897 11.340375 " transform="matrix(1.00003,0,0,-1,148.236097,84.356)"/>
<path style="fill:none;stroke-width:0.3985;stroke-linecap:butt;stroke-linejoin:miter;stroke:rgb(0%,0%,0%);stroke-opacity:1;stroke-miterlimit:10;" d="M 90.706494 11.340375 L 90.706494 22.676312 L 102.045998 22.676312 L 102.045998 11.340375 Z M 90.706494 11.340375 " transform="matrix(1.00003,0,0,-1,148.236097,84.356)"/>
<path style="fill:none;stroke-width:0.3985;stroke-linecap:butt;stroke-linejoin:miter;stroke:rgb(0%,0%,0%);stroke-opacity:1;stroke-miterlimit:10;" d="M 11.337782 22.676312 L 11.337782 34.016156 L 22.677285 34.016156 L 22.677285 22.676312 Z M 11.337782 22.676312 " transform="matrix(1.00003,0,0,-1,148.236097,84.356)"/>
<path style="fill:none;stroke-width:0.3985;stroke-linecap:butt;stroke-linejoin:miter;stroke:rgb(0%,0%,0%);stroke-opacity:1;stroke-miterlimit:10;" d="M 22.677285 22.676312 L 22.677285 34.016156 L 34.016789 34.016156 L 34.016789 22.676312 Z M 22.677285 22.676312 " transform="matrix(1.00003,0,0,-1,148.236097,84.356)"/>
<path style="fill:none;stroke-width:0.3985;stroke-linecap:butt;stroke-linejoin:miter;stroke:rgb(0%,0%,0%);stroke-opacity:1;stroke-miterlimit:10;" d="M 34.016789 22.676312 L 34.016789 34.016156 L 45.352386 34.016156 L 45.352386 22.676312 Z M 34.016789 22.676312 " transform="matrix(1.00003,0,0,-1,148.236097,84.356)"/>
<path style="fill:none;stroke-width:0.3985;stroke-linecap:butt;stroke-linejoin:miter;stroke:rgb(0%,0%,0%);stroke-opacity:1;stroke-miterlimit:10;" d="M 45.352386 22.676312 L 45.352386 34.016156 L 56.69189 34.016156 L 56.69189 22.676312 Z M 45.352386 22.676312 " transform="matrix(1.00003,0,0,-1,148.236097,84.356)"/>
<path style="fill:none;stroke-width:0.3985;stroke-linecap:butt;stroke-linejoin:miter;stroke:rgb(0%,0%,0%);stroke-opacity:1;stroke-miterlimit:10;" d="M 56.69189 22.676312 L 56.69189 34.016156 L 68.031393 34.016156 L 68.031393 22.676312 Z M 56.69189 22.676312 " transform="matrix(1.00003,0,0,-1,148.236097,84.356)"/>
<path style="fill:none;stroke-width:0.3985;stroke-linecap:butt;stroke-linejoin:miter;stroke:rgb(0%,0%,0%);stroke-opacity:1;stroke-miterlimit:10;" d="M 68.031393 22.676312 L 68.031393 34.016156 L 79.370897 34.016156 L 79.370897 22.676312 Z M 68.031393 22.676312 " transform="matrix(1.00003,0,0,-1,148.236097,84.356)"/>
<path style="fill:none;stroke-width:0.3985;stroke-linecap:butt;stroke-linejoin:miter;stroke:rgb(0%,0%,0%);stroke-opacity:1;stroke-miterlimit:10;" d="M 11.337782 34.016156 L 11.337782 45.356 L 22.677285 45.356 L 22.677285 34.016156 Z M 11.337782 34.016156 " transform="matrix(1.00003,0,0,-1,148.236097,84.356)"/>
<path style="fill:none;stroke-width:0.3985;stroke-linecap:butt;stroke-linejoin:miter;stroke:rgb(0%,0%,0%);stroke-opacity:1;stroke-miterlimit:10;" d="M 22.677285 34.016156 L 22.677285 45.356 L 34.016789 45.356 L 34.016789 34.016156 Z M 22.677285 34.016156 " transform="matrix(1.00003,0,0,-1,148.236097,84.356)"/>
<path style="fill:none;stroke-width:0.3985;stroke-linecap:butt;stroke-linejoin:miter;stroke:rgb(0%,0%,0%);stroke-opacity:1;stroke-miterlimit:10;" d="M 34.016789 34.016156 L 34.016789 45.356 L 45.352386 45.356 L 45.352386 34.016156 Z M 34.016789 34.016156 " transform="matrix(1.00003,0,0,-1,148.236097,84.356)"/>
<path style="fill:none;stroke-width:0.3985;stroke-linecap:butt;stroke-linejoin:miter;stroke:rgb(0%,0%,0%);stroke-opacity:1;stroke-miterlimit:10;" d="M 45.352386 34.016156 L 45.352386 45.356 L 56.69189 45.356 L 56.69189 34.016156 Z M 45.352386 34.016156 " transform="matrix(1.00003,0,0,-1,148.236097,84.356)"/>
<path style="fill:none;stroke-width:0.3985;stroke-linecap:butt;stroke-linejoin:miter;stroke:rgb(0%,0%,0%);stroke-opacity:1;stroke-miterlimit:10;" d="M 56.69189 34.016156 L 56.69189 45.356 L 68.031393 45.356 L 68.031393 34.016156 Z M 56.69189 34.016156 " transform="matrix(1.00003,0,0,-1,148.236097,84.356)"/>
<path style="fill:none;stroke-width:0.3985;stroke-linecap:butt;stroke-linejoin:miter;stroke:rgb(0%,0%,0%);stroke-opacity:1;stroke-miterlimit:10;" d="M 68.031393 34.016156 L 68.031393 45.356 L 79.370897 45.356 L 79.370897 34.016156 Z M 68.031393 34.016156 " transform="matrix(1.00003,0,0,-1,148.236097,84.356)"/>
<path style="fill:none;stroke-width:0.3985;stroke-linecap:butt;stroke-linejoin:miter;stroke:rgb(0%,0%,0%);stroke-opacity:1;stroke-miterlimit:10;" d="M 11.337782 45.356 L 11.337782 56.691937 L 22.677285 56.691937 L 22.677285 45.356 Z M 11.337782 45.356 " transform="matrix(1.00003,0,0,-1,148.236097,84.356)"/>
<path style="fill:none;stroke-width:0.3985;stroke-linecap:butt;stroke-linejoin:miter;stroke:rgb(0%,0%,0%);stroke-opacity:1;stroke-miterlimit:10;" d="M 22.677285 45.356 L 22.677285 56.691937 L 34.016789 56.691937 L 34.016789 45.356 Z M 22.677285 45.356 " transform="matrix(1.00003,0,0,-1,148.236097,84.356)"/>
<path style="fill:none;stroke-width:0.3985;stroke-linecap:butt;stroke-linejoin:miter;stroke:rgb(0%,0%,0%);stroke-opacity:1;stroke-miterlimit:10;" d="M 34.016789 45.356 L 34.016789 56.691937 L 45.352386 56.691937 L 45.352386 45.356 Z M 34.016789 45.356 " transform="matrix(1.00003,0,0,-1,148.236097,84.356)"/>
<path style="fill:none;stroke-width:0.3985;stroke-linecap:butt;stroke-linejoin:miter;stroke:rgb(0%,0%,0%);stroke-opacity:1;stroke-miterlimit:10;" d="M 11.337782 56.691937 L 11.337782 68.031781 L 22.677285 68.031781 L 22.677285 56.691937 Z M 11.337782 56.691937 " transform="matrix(1.00003,0,0,-1,148.236097,84.356)"/>
<path style="fill:none;stroke-width:0.3985;stroke-linecap:butt;stroke-linejoin:miter;stroke:rgb(0%,0%,0%);stroke-opacity:1;stroke-miterlimit:10;" d="M 22.677285 56.691937 L 22.677285 68.031781 L 34.016789 68.031781 L 34.016789 56.691937 Z M 22.677285 56.691937 " transform="matrix(1.00003,0,0,-1,148.236097,84.356)"/>
<path style="fill:none;stroke-width:0.3985;stroke-linecap:butt;stroke-linejoin:miter;stroke:rgb(0%,0%,0%);stroke-opacity:1;stroke-miterlimit:10;" d="M 34.016789 56.691937 L 34.016789 68.031781 L 45.352386 68.031781 L 45.352386 56.691937 Z M 34.016789 56.691937 " transform="matrix(1.00003,0,0,-1,148.236097,84.356)"/>
<path style="fill:none;stroke-width:0.3985;stroke-linecap:butt;stroke-linejoin:miter;stroke:rgb(0%,0%,0%);stroke-opacity:1;stroke-miterlimit:10;" d="M 11.337782 68.031781 L 11.337782 79.371625 L 22.677285 79.371625 L 22.677285 68.031781 Z M 11.337782 68.031781 " transform="matrix(1.00003,0,0,-1,148.236097,84.356)"/>
<path style="fill:none;stroke-width:0.3985;stroke-linecap:butt;stroke-linejoin:miter;stroke:rgb(97.499084%,97.499084%,97.499084%);stroke-opacity:1;stroke-miterlimit:10;" d="M -146.544201 7.156781 L 259.935792 7.156781 L 259.935792 83.559125 L -146.544201 83.559125 Z M -146.544201 7.156781 " transform="matrix(1.00003,0,0,-1,148.236097,84.356)"/>
</g>
</svg>
