<?xml version="1.0" encoding="UTF-8"?>
<svg xmlns="http://www.w3.org/2000/svg" xmlns:xlink="http://www.w3.org/1999/xlink" width="410pt" height="79pt" viewBox="0 0 410 79" version="1.1">
<g id="surface1">
<path style="fill:none;stroke-width:0.3985;stroke-linecap:butt;stroke-linejoin:miter;stroke:rgb(0%,0%,0%);stroke-opacity:1;stroke-miterlimit:10;" d="M 11.33999 11.340375 L 11.33999 22.676312 L 22.675588 22.676312 L 22.675588 11.340375 Z M 11.33999 11.340375 " transform="matrix(1.00003,0,0,-1,165.245607,84.356)"/>
<path style="fill:none;stroke-width:0.3985;stroke-linecap:butt;stroke-linejoin:miter;stroke:rgb(0%,0%,0%);stroke-opacity:1;stroke-miterlimit:10;" d="M 22.675588 11.340375 L 22.675588 22.676312 L 34.015091 22.676312 L 34.015091 11.340375 Z M 22.675588 11.340375 " transform="matrix(1.00003,0,0,-1,165.245607,84.356)"/>
<path style="fill:none;stroke-width:0.3985;stroke-linecap:butt;stroke-linejoin:miter;stroke:rgb(0%,0%,0%);stroke-opacity:1;stroke-miterlimit:10;" d="M 34.015091 11.340375 L 34.015091 22.676312 L 45.354595 22.676312 L 45.354595 11.340375 Z M 34.015091 11.340375 " transform="matrix(1.00003,0,0,-1,165.245607,84.356)"/>
<path style="fill:none;stroke-width:0.3985;stroke-linecap:butt;stroke-linejoin:miter;stroke:rgb(0%,0%,0%);stroke-opacity:1;stroke-miterlimit:10;" d="M 45.354595 11.340375 L 45.354595 22.676312 L 56.694098 22.676312 L 56.694098 11.340375 Z M 45.354595 11.340375 " transform="matrix(1.00003,0,0,-1,165.245607,84.356)"/>
<path style="fill:none;stroke-width:0.3985;stroke-linecap:butt;stroke-linejoin:miter;stroke:rgb(0%,0%,0%);stroke-opacity:1;stroke-miterlimit:10;" d="M 56.694098 11.340375 L 56.694098 22.676312 L 68.029696 22.676312 L 68.029696 11.340375 Z M 56.694098 11.340375 " transform="matrix(1.00003,0,0,-1,165.245607,84.356)"/>
<path style="fill:none;stroke-width:0.3985;stroke-linecap:butt;stroke-linejoin:miter;stroke:rgb(0%,0%,0%);stroke-opacity:1;stroke-miterlimit:10;" d="M 11.33999 22.676312 L 11.33999 34.016156 L 22.675588 34.016156 L 22.675588 22.676312 Z M 11.33999 22.676312 " transform="matrix(1.00003,0,0,-1,165.245607,84.356)"/>
<path style="fill:none;stroke-width:0.3985;stroke-linecap:butt;stroke-linejoin:miter;stroke:rgb(0%,0%,0%);stroke-opacity:1;stroke-miterlimit:10;" d="M 22.675588 22.676312 L 22.675588 34.016156 L 34.015091 34.016156 L 34.015091 22.676312 Z M 22.675588 22.676312 " transform="matrix(1.00003,0,0,-1,165.245607,84.356)"/>
<path style="fill:none;stroke-width:0.3985;stroke-linecap:butt;stroke-linejoin:miter;stroke:rgb(0%,0%,0%);stroke-opacity:1;stroke-miterlimit:10;" d="M 34.015091 22.676312 L 34.015091 34.016156 L 45.354595 34.016156 L 45.354595 22.676312 Z M 34.015091 22.676312 " transform="matrix(1.00003,0,0,-1,165.245607,84.356)"/>
<path style="fill:none;stroke-width:0.3985;stroke-linecap:butt;stroke-linejoin:miter;stroke:rgb(0%,0%,0%);stroke-opacity:1;stroke-miterlimit:10;" d="M 45.354595 22.676312 L 45.354595 34.016156 L 56.694098 34.016156 L 56.694098 22.676312 Z M 45.354595 22.676312 " transform="matrix(1.00003,0,0,-1,165.245607,84.356)"/>
<path style="fill:none;stroke-width:0.3985;stroke-linecap:butt;stroke-linejoin:miter;stroke:rgb(0%,0%,0%);stroke-opacity:1;stroke-miterlimit:10;" d="M 11.33999 34.016156 L 11.33999 45.356 L 22.675588 45.356 L 22.675588 34.016156 Z M 11.33999 34.016156 " transform="matrix(1.00003,0,0,-1,165.245607,84.356)"/>
<path style="fill:none;stroke-width:0.3985;stroke-linecap:butt;stroke-linejoin:miter;stroke:rgb(0%,0%,0%);stroke-opacity:1;stroke-miterlimit:10;" d="M 22.675588 34.016156 L 22.675588 45.356 L 34.015091 45.356 L 34.015091 34.016156 Z M 22.675588 34.016156 " transform="matrix(1.00003,0,0,-1,165.245607,84.356)"/>
<path style="fill:none;stroke-width:0.3985;stroke-linecap:butt;stroke-linejoin:miter;stroke:rgb(0%,0%,0%);stroke-opacity:1;stroke-miterlimit:10;" d="M 34.015091 34.016156 L 34.015091 45.356 L 45.354595 45.356 L 45.354595 34.016156 Z M 34.015091 34.016156 " transform="matrix(1.00003,0,0,-1,165.245607,84.356)"/>
<path style="fill:none;stroke-width:0.3985;stroke-linecap:butt;stroke-linejoin:miter;stroke:rgb(0%,0%,0%);stroke-opacity:1;stroke-miterlimit:10;" d="M 45.354595 34.016156 L 45.354595 45.356 L 56.694098 45.356 L 56.694098 34.016156 Z M 45.354595 34.016156 " transform="matrix(1.00003,0,0,-1,165.245607,84.356)"/>
<path style="fill:none;stroke-width:0.3985;stroke-linecap:butt;stroke-linejoin:miter;stroke:rgb(0%,0%,0%);stroke-opacity:1;stroke-miterlimit:10;" d="M 11.33999 45.356 L 11.33999 56.691937 L 22.675588 56.691937 L 22.675588 45.356 Z M 11.33999 45.356 " transform="matrix(1.00003,0,0,-1,165.245607,84.356)"/>
<path style="fill:none;stroke-width:0.3985;stroke-linecap:butt;stroke-linejoin:miter;stroke:rgb(0%,0%,0%);stroke-opacity:1;stroke-miterlimit:10;" d="M 22.675588 45.356 L 22.675588 56.691937 L 34.015091 56.691937 L 34.015091 45.356 Z M 22.675588 45.356 " transform="matrix(1.00003,0,0,-1,165.245607,84.356)"/>
<path style="fill:none;stroke-width:0.3985;stroke-linecap:butt;stroke-linejoin:miter;stroke:rgb(0%,0%,0%);stroke-opacity:1;stroke-miterlimit:10;" d="M 34.015091 45.356 L 34.015091 56.691937 L 45.354595 56.691937 L 45.354595 45.356 Z M 34.015091 45.356 " transform="matrix(1.00003,0,0,-1,165.245607,84.356)"/>
<path style="fill:none;stroke-width:0.3985;stroke-linecap:butt;stroke-linejoin:miter;stroke:rgb(0%,0%,0%);stroke-opacity:1;stroke-miterlimit:10;" d="M 45.354595 45.356 L 45.354595 56.691937 L 56.694098 56.691937 L 56.694098 45.356 Z M 45.354595 45.356 " transform="matrix(1.00003,0,0,-1,165.245607,84.356)"/>
<path style="fill:none;stroke-width:0.3985;stroke-linecap:butt;stroke-linejoin:miter;stroke:rgb(0%,0%,0%);stroke-opacity:1;stroke-miterlimit:10;" d="M 11.33999 56.691937 L 11.33999 68.031781 L 22.675588 68.031781 L 22.675588 56.691937 Z M 11.33999 56.691937 " transform="matrix(1.00003,0,0,-1,165.245607,84.356)"/>
<path style="fill:none;stroke-width:0.3985;stroke-linecap:butt;stroke-linejoin:miter;stroke:rgb(0%,0%,0%);stroke-opacity:1;stroke-miterlimit:10;" d="M 22.675588 56.691937 L 22.675588 68.031781 L 34.015091 68.031781 L 34.015091 56.691937 Z M 22.675588 56.691937 " transform="matrix(1.00003,0,0,-1,165.245607,84.356)"/>
<path style="fill:none;stroke-width:0.3985;stroke-linecap:butt;stroke-linejoin:miter;stroke:rgb(0%,0%,0%);stroke-opacity:1;stroke-miterlimit:10;" d="M 11.33999 68.031781 L 11.33999 79.371625 L 22.675588 79.371625 L 22.675588 68.031781 Z M 11.33999 68.031781 " transform="matrix(1.00003,0,0,-1,165.245607,84.356)"/>
<path style="fill:none;stroke-width:0.3985;stroke-linecap:butt;stroke-linejoin:miter;stroke:rgb(0%,0%,0%);stroke-opacity:1;stroke-miterlimit:10;" d="M 22.675588 68.031781 L 22.675588 79.371625 L 34.015091 79.371625 L 34.015091 68.031781 Z M 22.675588 68.031781 " transform="matrix(1.00003,0,0,-1,165.245607,84.356)"/>
<path style="fill:none;stroke-width:0.3985;stroke-linecap:butt;stroke-linejoin:miter;stroke:rgb(97.499084%,97.499084%,97.499084%);stroke-opacity:1;stroke-miterlimit:10;" d="M -163.553201 7.156781 L 242.926792 7.156781 L 242.926792 83.559125 L -163.553201 83.559125 Z M -163.553201 7.156781 " transform="matrix(1.00003,0,0,-1,165.245607,84.356)"/>
</g>
</svg>
