<?xml version="1.0" encoding="UTF-8"?>
<svg xmlns="http://www.w3.org/2000/svg" xmlns:xlink="http://www.w3.org/1999/xlink" width="410pt" height="34pt" viewBox="0 0 410 34" version="1.1">
<g id="surface1">
<path style="fill:none;stroke-width:0.3985;stroke-linecap:butt;stroke-linejoin:miter;stroke:rgb(0%,0%,0%);stroke-opacity:1;stroke-miterlimit:10;" d="M 11.339292 11.340224 L 11.339292 22.675821 L 22.678796 22.675821 L 22.678796 11.340224 Z M 11.339292 11.340224 " transform="matrix(1.00003,0,0,-1.00003,182.254117,39.00072)"/>
<path style="fill:none;stroke-width:0.3985;stroke-linecap:butt;stroke-linejoin:miter;stroke:rgb(0%,0%,0%);stroke-opacity:1;stroke-miterlimit:10;" d="M 22.678796 11.340224 L 22.678796 22.675821 L 34.014393 22.675821 L 34.014393 11.340224 Z M 22.678796 11.340224 " transform="matrix(1.00003,0,0,-1.00003,182.254117,39.00072)"/>
<path style="fill:none;stroke-width:0.3985;stroke-linecap:butt;stroke-linejoin:miter;stroke:rgb(0%,0%,0%);stroke-opacity:1;stroke-miterlimit:10;" d="M 11.339292 22.675821 L 11.339292 34.015325 L 22.678796 34.015325 L 22.678796 22.675821 Z M 11.339292 22.675821 " transform="matrix(1.00003,0,0,-1.00003,182.254117,39.00072)"/>
<path style="fill:none;stroke-width:0.3985;stroke-linecap:butt;stroke-linejoin:miter;stroke:rgb(0%,0%,0%);stroke-opacity:1;stroke-miterlimit:10;" d="M 22.678796 22.675821 L 22.678796 34.015325 L 34.014393 34.015325 L 34.014393 22.675821 Z M 22.678796 22.675821 " transform="matrix(1.00003,0,0,-1.00003,182.254117,39.00072)"/>
<path style="fill:none;stroke-width:0.3985;stroke-linecap:butt;stroke-linejoin:miter;stroke:rgb(97.499084%,97.499084%,97.499084%);stroke-opacity:1;stroke-miterlimit:10;" d="M -180.561201 7.156755 L 225.918792 7.156755 L 225.918792 38.202699 L -180.561201 38.202699 Z M -180.561201 7.156755 " transform="matrix(1.00003,0,0,-1.00003,182.254117,39.00072)"/>
</g>
</svg>
