<?xml version="1.0" encoding="UTF-8"?>
<svg xmlns="http://www.w3.org/2000/svg" xmlns:xlink="http://www.w3.org/1999/xlink" width="410pt" height="45pt" viewBox="0 0 410 45" version="1.1">
<g id="surface1">
<path style="fill:none;stroke-width:0.3985;stroke-linecap:butt;stroke-linejoin:miter;stroke:rgb(0%,0%,0%);stroke-opacity:1;stroke-miterlimit:10;" d="M 11.340494 11.33972 L 11.340494 22.675317 L 22.676091 22.675317 L 22.676091 11.33972 Z M 11.340494 11.33972 " transform="matrix(1.00003,0,0,-1.00003,176.584947,50.34006)"/>
<path style="fill:none;stroke-width:0.3985;stroke-linecap:butt;stroke-linejoin:miter;stroke:rgb(0%,0%,0%);stroke-opacity:1;stroke-miterlimit:10;" d="M 22.676091 11.33972 L 22.676091 22.675317 L 34.015595 22.675317 L 34.015595 11.33972 Z M 22.676091 11.33972 " transform="matrix(1.00003,0,0,-1.00003,176.584947,50.34006)"/>
<path style="fill:none;stroke-width:0.3985;stroke-linecap:butt;stroke-linejoin:miter;stroke:rgb(0%,0%,0%);stroke-opacity:1;stroke-miterlimit:10;" d="M 34.015595 11.33972 L 34.015595 22.675317 L 45.355098 22.675317 L 45.355098 11.33972 Z M 34.015595 11.33972 " transform="matrix(1.00003,0,0,-1.00003,176.584947,50.34006)"/>
<path style="fill:none;stroke-width:0.3985;stroke-linecap:butt;stroke-linejoin:miter;stroke:rgb(0%,0%,0%);stroke-opacity:1;stroke-miterlimit:10;" d="M 11.340494 22.675317 L 11.340494 34.014821 L 22.676091 34.014821 L 22.676091 22.675317 Z M 11.340494 22.675317 " transform="matrix(1.00003,0,0,-1.00003,176.584947,50.34006)"/>
<path style="fill:none;stroke-width:0.3985;stroke-linecap:butt;stroke-linejoin:miter;stroke:rgb(0%,0%,0%);stroke-opacity:1;stroke-miterlimit:10;" d="M 11.340494 34.014821 L 11.340494 45.354325 L 22.676091 45.354325 L 22.676091 34.014821 Z M 11.340494 34.014821 " transform="matrix(1.00003,0,0,-1.00003,176.584947,50.34006)"/>
<path style="fill:none;stroke-width:0.3985;stroke-linecap:butt;stroke-linejoin:miter;stroke:rgb(97.499084%,97.499084%,97.499084%);stroke-opacity:1;stroke-miterlimit:10;" d="M -174.892201 7.156252 L 231.587792 7.156252 L 231.587792 49.541699 L -174.892201 49.541699 Z M -174.892201 7.156252 " transform="matrix(1.00003,0,0,-1.00003,176.584947,50.34006)"/>
</g>
</svg>
