<?xml version="1.0" encoding="UTF-8"?>
<svg xmlns="http://www.w3.org/2000/svg" xmlns:xlink="http://www.w3.org/1999/xlink" width="410pt" height="22pt" viewBox="0 0 410 22" version="1.1">
<g id="surface1">
<path style="fill:none;stroke-width:0.3985;stroke-linecap:butt;stroke-linejoin:miter;stroke:rgb(0%,0%,0%);stroke-opacity:1;stroke-miterlimit:10;" d="M 11.337782 11.337821 L 11.337782 22.677325 L 22.677285 22.677325 L 22.677285 11.337821 Z M 11.337782 11.337821 " transform="matrix(1.00003,0,0,-1.00003,148.236097,27.66238)"/>
<path style="fill:none;stroke-width:0.3985;stroke-linecap:butt;stroke-linejoin:miter;stroke:rgb(0%,0%,0%);stroke-opacity:1;stroke-miterlimit:10;" d="M 22.677285 11.337821 L 22.677285 22.677325 L 34.016789 22.677325 L 34.016789 11.337821 Z M 22.677285 11.337821 " transform="matrix(1.00003,0,0,-1.00003,148.236097,27.66238)"/>
<path style="fill:none;stroke-width:0.3985;stroke-linecap:butt;stroke-linejoin:miter;stroke:rgb(0%,0%,0%);stroke-opacity:1;stroke-miterlimit:10;" d="M 34.016789 11.337821 L 34.016789 22.677325 L 45.352386 22.677325 L 45.352386 11.337821 Z M 34.016789 11.337821 " transform="matrix(1.00003,0,0,-1.00003,148.236097,27.66238)"/>
<path style="fill:none;stroke-width:0.3985;stroke-linecap:butt;stroke-linejoin:miter;stroke:rgb(0%,0%,0%);stroke-opacity:1;stroke-miterlimit:10;" d="M 45.352386 11.337821 L 45.352386 22.677325 L 56.69189 22.677325 L 56.69189 11.337821 Z M 45.352386 11.337821 " transform="matrix(1.00003,0,0,-1.00003,148.236097,27.66238)"/>
<path style="fill:none;stroke-width:0.3985;stroke-linecap:butt;stroke-linejoin:miter;stroke:rgb(0%,0%,0%);stroke-opacity:1;stroke-miterlimit:10;" d="M 56.69189 11.337821 L 56.69189 22.677325 L 68.031393 22.677325 L 68.031393 11.337821 Z M 56.69189 11.337821 " transform="matrix(1.00003,0,0,-1.00003,148.236097,27.66238)"/>
<path style="fill:none;stroke-width:0.3985;stroke-linecap:butt;stroke-linejoin:miter;stroke:rgb(0%,0%,0%);stroke-opacity:1;stroke-miterlimit:10;" d="M 68.031393 11.337821 L 68.031393 22.677325 L 79.370897 22.677325 L 79.370897 11.337821 Z M 68.031393 11.337821 " transform="matrix(1.00003,0,0,-1.00003,148.236097,27.66238)"/>
<path style="fill:none;stroke-width:0.3985;stroke-linecap:butt;stroke-linejoin:miter;stroke:rgb(0%,0%,0%);stroke-opacity:1;stroke-miterlimit:10;" d="M 79.370897 11.337821 L 79.370897 22.677325 L 90.706494 22.677325 L 90.706494 11.337821 Z M 79.370897 11.337821 " transform="matrix(1.00003,0,0,-1.00003,148.236097,27.66238)"/>
<path style="fill:none;stroke-width:0.3985;stroke-linecap:butt;stroke-linejoin:miter;stroke:rgb(0%,0%,0%);stroke-opacity:1;stroke-miterlimit:10;" d="M 90.706494 11.337821 L 90.706494 22.677325 L 102.045998 22.677325 L 102.045998 11.337821 Z M 90.706494 11.337821 " transform="matrix(1.00003,0,0,-1.00003,148.236097,27.66238)"/>
<path style="fill:none;stroke-width:0.3985;stroke-linecap:butt;stroke-linejoin:miter;stroke:rgb(97.499084%,97.499084%,97.499084%);stroke-opacity:1;stroke-miterlimit:10;" d="M -146.544201 7.154353 L 259.935792 7.154353 L 259.935792 26.860793 L -146.544201 26.860793 Z M -146.544201 7.154353 " transform="matrix(1.00003,0,0,-1.00003,148.236097,27.66238)"/>
</g>
</svg>
